<svg xmlns="http://www.w3.org/2000/svg" xmlns:xlink="http://www.w3.org/1999/xlink" width="12" height="12" viewBox="0 0 12 12"><defs><clipPath id="clip-path" transform="translate(0)"><rect width="12" height="12" fill="none"/></clipPath></defs><g id="Layer_2" data-name="Layer 2"><g id="Layer_1-2" data-name="Layer 1"><g id="extlink"><g clip-path="url(#clip-path)"><g clip-path="url(#clip-path)"><path d="M10.12,7.5H9.38A.38.38,0,0,0,9,7.88V10.5H1.5V3H4.87a.38.38,0,0,0,.38-.38V1.88a.38.38,0,0,0-.38-.38H1.14A1.14,1.14,0,0,0,0,2.64v8.24A1.12,1.12,0,0,0,1.12,12H9.37a1.12,1.12,0,0,0,1.13-1.12v-3a.38.38,0,0,0-.38-.38M11.43,0h-3A.57.57,0,0,0,8,1l.85.85L3,7.63a.56.56,0,0,0,0,.8H3L3.57,9a.56.56,0,0,0,.8,0h0l5.8-5.8L11,4a.57.57,0,0,0,1-.4V.57A.58.58,0,0,0,11.43,0" transform="translate(0)" fill="#c7b299"/></g></g></g></g></g></svg>