<svg xmlns="http://www.w3.org/2000/svg" xmlns:xlink="http://www.w3.org/1999/xlink" width="29.59" height="29.59" viewBox="0 0 29.59 29.59"><defs><clipPath id="clip-path" transform="translate(0 0)"><rect width="29.59" height="29.59" fill="none"/></clipPath></defs><g id="Layer_2" data-name="Layer 2"><g id="Layer_1-2" data-name="Layer 1"><g id="instagram"><g clip-path="url(#clip-path)"><g clip-path="url(#clip-path)"><path d="M8.88,0H20.71a8.87,8.87,0,0,1,8.88,8.88V20.71a8.87,8.87,0,0,1-8.88,8.88H8.88A8.87,8.87,0,0,1,0,20.71V8.88A8.87,8.87,0,0,1,8.88,0m0,3A5.92,5.92,0,0,0,3,8.88V20.71a5.92,5.92,0,0,0,5.92,5.92H20.71a5.92,5.92,0,0,0,5.92-5.92V8.88A5.92,5.92,0,0,0,20.71,3ZM14.8,22.19a7.4,7.4,0,1,1,7.39-7.39,7.39,7.39,0,0,1-7.39,7.39m0-3a4.44,4.44,0,1,0-4.44-4.43,4.43,4.43,0,0,0,4.44,4.43M22.19,8.88A1.48,1.48,0,1,1,23.67,7.4a1.48,1.48,0,0,1-1.48,1.48" transform="translate(0 0)" fill-rule="evenodd"/></g></g></g></g></g></svg>