<svg xmlns="http://www.w3.org/2000/svg" width="173.57" height="28.17" viewBox="0 0 173.57 28.17"><g id="Layer_2" data-name="Layer 2"><g id="Layer_2-2" data-name="Layer 2"><path d="M12.43,12.69h8.1v.65A13.66,13.66,0,0,1,20,17.25a8.2,8.2,0,0,1-1.72,2.94,8.86,8.86,0,0,1-6.94,3.07,9.57,9.57,0,0,1-7-3,9.86,9.86,0,0,1-2.93-7.16,9.85,9.85,0,0,1,3-7.23,9.89,9.89,0,0,1,7.27-3,10,10,0,0,1,4.29.94A12.41,12.41,0,0,1,19.65,6.9l-2.11,2a7.13,7.13,0,0,0-5.87-3.21A7,7,0,0,0,6.45,7.85a7.16,7.16,0,0,0-2.11,5.28,6.93,6.93,0,0,0,2.35,5.4,7,7,0,0,0,4.76,2A5.86,5.86,0,0,0,15.37,19a5.25,5.25,0,0,0,2-3.55H12.43Z" transform="translate(-1.37 -1.45)" fill="#fff"/><path d="M35,17.39H26.1a3.79,3.79,0,0,0,1,2.42,3,3,0,0,0,2.25.89,2.89,2.89,0,0,0,1.76-.51,7.21,7.21,0,0,0,1.57-1.88l2.41,1.35a10.4,10.4,0,0,1-1.18,1.63,6.33,6.33,0,0,1-1.34,1.12,5.45,5.45,0,0,1-1.53.64,7.79,7.79,0,0,1-1.79.2,5.82,5.82,0,0,1-4.45-1.78,6.67,6.67,0,0,1-1.67-4.74A6.86,6.86,0,0,1,24.74,12a5.58,5.58,0,0,1,4.34-1.79,5.56,5.56,0,0,1,4.32,1.74A6.82,6.82,0,0,1,35,16.71ZM32,15.05a2.74,2.74,0,0,0-2.88-2.28,3.14,3.14,0,0,0-1,.15A2.84,2.84,0,0,0,26.7,14.1a3.41,3.41,0,0,0-.41,1Z" transform="translate(-1.37 -1.45)" fill="#fff"/><path d="M41.26,13.2v9.7H38.4V13.2H37.18V10.53H38.4V6h2.86v4.53h2.22V13.2Z" transform="translate(-1.37 -1.45)" fill="#fff"/><path d="M53.31,22.9,57.43,1.82l6.73,15.24,7-15.24L74.84,22.9h-3L69.91,11.06,64.11,23.8,58.47,11.05,56.37,22.9Z" transform="translate(-1.37 -1.45)" fill="#fff"/><path d="M77.86,16.62a6.13,6.13,0,0,1,1.92-4.55,6.39,6.39,0,0,1,4.67-1.88,6.48,6.48,0,0,1,4.7,1.89,6.29,6.29,0,0,1,1.9,4.65,6.28,6.28,0,0,1-1.92,4.66,6.54,6.54,0,0,1-4.73,1.86,6.27,6.27,0,0,1-4.66-1.9A6.44,6.44,0,0,1,77.86,16.62Zm2.92.06a4.17,4.17,0,0,0,1,2.93,3.85,3.85,0,0,0,5.36,0,4.06,4.06,0,0,0,1-2.88,4.06,4.06,0,0,0-1-2.88,3.48,3.48,0,0,0-2.68-1.09,3.43,3.43,0,0,0-2.65,1.09A3.94,3.94,0,0,0,80.78,16.68Z" transform="translate(-1.37 -1.45)" fill="#fff"/><path d="M97.17,13.2v9.7H94.31V13.2H93.09V10.53h1.22V6h2.86v4.53h2.22V13.2Z" transform="translate(-1.37 -1.45)" fill="#fff"/><path d="M112.82,17.39H104a3.79,3.79,0,0,0,1,2.42,3.05,3.05,0,0,0,2.25.89,2.89,2.89,0,0,0,1.76-.51,7.21,7.21,0,0,0,1.57-1.88l2.41,1.35a9.79,9.79,0,0,1-1.18,1.63,6.33,6.33,0,0,1-1.34,1.12,5.45,5.45,0,0,1-1.53.64,7.79,7.79,0,0,1-1.79.2,5.82,5.82,0,0,1-4.45-1.78A6.67,6.67,0,0,1,101,16.73,6.86,6.86,0,0,1,102.6,12a6.19,6.19,0,0,1,8.66-.05,6.82,6.82,0,0,1,1.58,4.78Zm-2.93-2.34A2.74,2.74,0,0,0,107,12.77a3.14,3.14,0,0,0-1,.15,2.84,2.84,0,0,0-1.47,1.18,3.41,3.41,0,0,0-.41,1Z" transform="translate(-1.37 -1.45)" fill="#fff"/><path d="M118.8,1.45V12a5.27,5.27,0,0,1,3.89-1.78,5.36,5.36,0,0,1,4.16,1.86,6.68,6.68,0,0,1,1.66,4.63,6.8,6.8,0,0,1-1.67,4.72,5.42,5.42,0,0,1-4.2,1.85,5.36,5.36,0,0,1-3.84-1.65v1.3H116V1.45Zm6.79,15.35a4.27,4.27,0,0,0-1-2.89,3.09,3.09,0,0,0-2.45-1.14,3.26,3.26,0,0,0-2.56,1.1,4.07,4.07,0,0,0-1,2.84,4.18,4.18,0,0,0,1,2.89,3.24,3.24,0,0,0,2.54,1.1,3.16,3.16,0,0,0,2.46-1.1A4.08,4.08,0,0,0,125.59,16.8Z" transform="translate(-1.37 -1.45)" fill="#fff"/><path d="M131,16.62a6.13,6.13,0,0,1,1.92-4.55,6.39,6.39,0,0,1,4.67-1.88,6.47,6.47,0,0,1,4.7,1.89,6.29,6.29,0,0,1,1.9,4.65,6.31,6.31,0,0,1-1.91,4.66,6.58,6.58,0,0,1-4.74,1.86,6.28,6.28,0,0,1-4.66-1.9A6.44,6.44,0,0,1,131,16.62Zm2.92.06a4.17,4.17,0,0,0,1,2.93,3.85,3.85,0,0,0,5.36,0,4.06,4.06,0,0,0,1-2.88,4.06,4.06,0,0,0-1-2.88,3.48,3.48,0,0,0-2.68-1.09,3.43,3.43,0,0,0-2.65,1.09A3.94,3.94,0,0,0,133.87,16.68Z" transform="translate(-1.37 -1.45)" fill="#fff"/><path d="M156.28,1.45h2.87V22.9h-2.87V21.6a5.34,5.34,0,0,1-3.82,1.65,5.48,5.48,0,0,1-4.22-1.85,6.89,6.89,0,0,1-1.66-4.72,6.68,6.68,0,0,1,1.66-4.63,5.32,5.32,0,0,1,4.15-1.86A5.26,5.26,0,0,1,156.28,12ZM149.5,16.68a4.32,4.32,0,0,0,.95,2.89,3.13,3.13,0,0,0,2.47,1.13,3.27,3.27,0,0,0,2.56-1.09,4.25,4.25,0,0,0,1-2.87,4.23,4.23,0,0,0-1-2.87,3.22,3.22,0,0,0-2.54-1.1,3.16,3.16,0,0,0-2.46,1.11A4.16,4.16,0,0,0,149.5,16.68Z" transform="translate(-1.37 -1.45)" fill="#fff"/><path d="M166.65,20.6l-5.56-10.07h3.31l3.79,7.11,3.53-7.11h3.22l-9.85,19.09h-3.26Z" transform="translate(-1.37 -1.45)" fill="#fff"/></g></g></svg>