<svg xmlns="http://www.w3.org/2000/svg" width="43" height="43" viewBox="0 0 43 43"><g id="Layer_2" data-name="Layer 2"><g id="Layer_2-2" data-name="Layer 2"><rect width="43" height="43" fill="none"/><path d="M9.9,14H33.1a.9.9,0,0,0,.9-.9V10.9a.9.9,0,0,0-.9-.9H9.9a.9.9,0,0,0-.9.9v2.2A.9.9,0,0,0,9.9,14Zm0,9H33.1a.9.9,0,0,0,.9-.9V19.9a.9.9,0,0,0-.9-.9H9.9a.9.9,0,0,0-.9.9v2.2A.9.9,0,0,0,9.9,23Zm0,9H33.1a.9.9,0,0,0,.9-.9V28.9a.9.9,0,0,0-.9-.9H9.9a.9.9,0,0,0-.9.9v2.2A.9.9,0,0,0,9.9,32Z" fill="#fff"/></g></g></svg>