<svg xmlns="http://www.w3.org/2000/svg" xmlns:xlink="http://www.w3.org/1999/xlink" width="31.22" height="28.11" viewBox="0 0 31.22 28.11"><defs><clipPath id="clip-path" transform="translate(0 0)"><rect width="31.22" height="28.11" fill="none"/></clipPath><clipPath id="clip-path-2" transform="translate(0 0)"><rect width="31.22" height="28.11" fill="none"/></clipPath></defs><g id="Layer_2" data-name="Layer 2"><g id="Layer_1-2" data-name="Layer 1"><g id="twitter"><g clip-path="url(#clip-path)"><g clip-path="url(#clip-path-2)"><path d="M29.07,3.71,31.22,4l-1,1.88L28.84,8.6a1.83,1.83,0,0,1-.3.59l-.27.4-.13.19v3.54c0,9-9,14.79-17.5,14.79a20.74,20.74,0,0,1-4.57-.4c-2.49-.53-4.35-1.58-5.2-3.42L0,22.4l2.12-.19a19.25,19.25,0,0,0,4.86-1c-3.51-.55-5.47-2.05-5.47-4.86V14.87H3.07A5.05,5.05,0,0,0,4,14.79C1.35,13.26,0,10.81,0,7.4V7.1A8.65,8.65,0,0,1,.6,3.29,6.63,6.63,0,0,1,2,1.21L3.1,0,4.21,1.24c3.68,4.09,7.31,6.57,11,6.87a6.6,6.6,0,0,1,6.83-6.63,6.88,6.88,0,0,1,4.76,1.88c.71.14,1.46.26,2.25.35M25.8,6.18l-.47-.11L25,5.71a3.83,3.83,0,0,0-6.72,2.56,5.64,5.64,0,0,1-.05.85A2.21,2.21,0,0,1,16,11.28c-4.59,0-8.73-2.45-12.76-6.65A7.42,7.42,0,0,0,3,7.13v.34s1.23,4.69,4.13,5.61l.31.33v1.08c.73,1.32-.52,2.55-2.34,3.1.84.64,5.3,1.72,5.3,1.72h1.47v1.48c0,2.12-2.57,3.78-6.47,4.64A18.35,18.35,0,0,0,10.3,26c7.23,0,14.88-4.75,14.88-11.83V9.75a2.53,2.53,0,0,1,.35-1.24A5.11,5.11,0,0,1,25.82,8s.1-.15.17-.25l.12-.24.59-1.18-.9-.18" transform="translate(0 0)" fill-rule="evenodd"/></g></g></g></g></g></svg>